<?xml version="1.0" encoding="utf-8"?>
<!-- Generator: Adobe Illustrator 19.2.1, SVG Export Plug-In . SVG Version: 6.00 Build 0)  -->
<svg version="1.1" id="Capa_1" xmlns="http://www.w3.org/2000/svg" xmlns:xlink="http://www.w3.org/1999/xlink" x="0px" y="0px"
	 viewBox="0 0 79.5 69.36" enable-background="new 0 0 79.5 69.36" xml:space="preserve">
<g id="BSC_Logo_2_">
	<g>
		<path fill="#213970" d="M44.56,4.65c2.74,0,8.51,1.25,10.64,1.85C33.37,5.45,19.62,20.24,19.62,37.24
			c0,12.1,7.23,25.45,24.61,29.45C24.07,67.05,12.3,50.42,12.3,35.91C12.3,17.54,28.06,4.65,44.56,4.65z"/>
		<path fill="#213970" d="M32.92,0c3.57,0,8.19,1.17,11.47,2.16C43.03,1.99,40.74,2,39.91,2C19.75,2,7.65,19.7,7.65,36.08
			c0,14.09,7.81,29.02,26.6,33.27C11.98,69.92,0,50.42,0,34.58C0,16.17,14.63,0,32.92,0z"/>
		<path fill="#213970" d="M40.01,37.01h-1.96l-0.45,2.15h2.28c0.63,0,1.5-0.23,1.5-1.16C41.38,37.14,40.75,37.01,40.01,37.01z"/>
		<path fill="#213970" d="M51.81,9.07c-15.19,0-27.5,12.31-27.5,27.5c0,15.19,12.31,27.5,27.5,27.5c15.19,0,27.5-12.31,27.5-27.5
			C79.31,21.38,66.99,9.07,51.81,9.07z M44.93,38.03c0,2.78-2.23,3.88-4.75,3.88h-6.62l2.39-11.54h5.93c2.5,0,3.44,0.87,3.44,2.54
			c0,1.46-0.73,2.41-2.12,2.78h-0.02v0.03C44.26,35.95,44.93,36.96,44.93,38.03z M53.87,34.91c2,0.71,2.68,1.81,2.68,3.19
			c0,2.78-2.7,4.08-5.2,4.08c-2.65,0-5.04-1.21-4.9-4.15h3.44c0,0.63,0.15,1.02,0.44,1.31c0.31,0.26,0.73,0.29,1.31,0.29
			c0.69,0,1.55-0.35,1.55-1.11c0-0.84-1.18-0.96-2.78-1.49c-1.41-0.47-2.77-1.21-2.77-3.13c0-2.6,2.52-3.8,4.85-3.8
			c2.46,0,4.67,0.92,4.6,3.77h-3.28c0.02-0.47-0.14-0.76-0.4-0.96c-0.26-0.19-0.63-0.26-1.04-0.26c-0.6,0-1.37,0.18-1.37,0.94
			C51.01,34.46,52.74,34.51,53.87,34.91z M64.11,39.31c1.11,0,1.74-0.76,1.97-1.78h3.49c-0.21,1.18-1.11,4.65-5.91,4.65
			c-3.35,0-4.96-2.16-4.96-5.25c0-3.73,2.33-6.84,6.25-6.84c2.57,0,4.86,1.12,4.93,4.58h-3.36c0.03-1.08-0.49-1.7-1.58-1.7
			c-1.97,0-2.68,2.26-2.68,3.89C62.25,37.82,62.48,39.31,64.11,39.31z"/>
		<path fill="#213970" d="M40.67,33.12h-1.83l-0.35,1.75h2c0.57,0,1.28-0.21,1.28-0.92C41.77,33.25,41.3,33.12,40.67,33.12z"/>
	</g>
</g>
</svg>
