<?xml version="1.0" encoding="UTF-8" standalone="no"?>
<!DOCTYPE svg PUBLIC "-//W3C//DTD SVG 20010904//EN"
              "http://www.w3.org/TR/2001/REC-SVG-20010904/DTD/svg10.dtd">

<svg xmlns="http://www.w3.org/2000/svg"
     viewBox="0 0 1200 670">
  <path id="Primary"
        fill="#4E8490" stroke="black" stroke-width="0"
        d="M 485.00,123.00
           C 485.00,99.28 491.39,72.84 504.75,53.00
             512.32,41.75 520.88,33.70 532.00,26.02
             591.68,-15.18 681.69,8.79 707.94,78.00
             712.59,90.28 715.15,105.88 715.00,119.00
             715.00,119.00 714.17,128.00 714.17,128.00
             711.43,155.43 704.00,180.82 683.91,200.91
             661.07,223.75 629.19,231.95 598.00,234.09
             598.00,234.09 586.00,235.00 586.00,235.00
             586.00,235.00 231.00,235.00 231.00,235.00
             232.29,228.13 236.29,222.00 239.72,216.00
             255.97,187.58 277.45,175.05 310.00,175.00
             310.00,175.00 578.00,175.00 578.00,175.00
             604.47,174.96 632.55,166.22 645.24,141.00
             647.62,136.26 649.94,130.26 650.70,125.00
             654.50,98.60 624.94,69.34 599.00,69.34
             595.12,69.34 587.69,71.07 584.00,72.44
             572.59,76.68 563.50,84.90 556.86,95.00
             552.55,101.56 547.02,113.03 540.99,117.35
             535.41,121.35 528.55,121.61 522.00,122.09
             522.00,122.09 512.00,123.00 512.00,123.00
             512.00,123.00 485.00,123.00 485.00,123.00 Z
           M 773.00,235.00
           C 773.00,212.75 775.61,191.70 786.87,172.00
             824.98,105.34 923.08,100.28 972.83,156.00
             989.54,174.71 996.40,193.42 998.09,218.00
             998.09,218.00 999.00,234.00 999.00,234.00
             999.00,234.00 998.09,244.00 998.09,244.00
             997.01,259.66 994.09,274.92 986.68,289.00
             967.79,324.91 927.08,346.53 887.00,347.00
             887.00,347.00 802.00,347.00 802.00,347.00
             802.00,347.00 632.00,347.00 632.00,347.00
             632.00,347.00 123.00,347.00 123.00,347.00
             129.45,332.03 140.51,316.49 152.00,305.00
             157.05,299.95 161.44,295.44 168.00,292.32
             180.67,286.31 197.12,288.00 211.00,288.00
             211.00,288.00 290.00,288.00 290.00,288.00
             290.00,288.00 740.00,288.00 740.00,288.00
             740.00,288.00 830.00,288.00 830.00,288.00
             847.02,288.00 874.05,288.41 890.00,283.99
             914.74,277.12 936.31,258.28 936.00,231.00
             935.66,201.33 903.40,177.32 875.00,184.24
             853.66,189.44 834.83,213.27 833.00,235.00
             833.00,235.00 773.00,235.00 773.00,235.00 Z
           M 16.00,658.00
           C 17.22,650.08 20.79,642.57 23.33,635.00
             23.33,635.00 42.00,582.00 42.00,582.00
             42.00,582.00 74.00,491.00 74.00,491.00
             74.00,491.00 86.31,456.00 86.31,456.00
             88.37,450.20 90.20,443.32 93.17,438.00
             97.11,430.97 102.47,425.04 107.72,419.00
             120.13,404.74 142.01,385.54 160.00,379.09
             167.05,376.56 179.46,375.01 187.00,375.00
             187.00,375.00 441.00,375.00 441.00,375.00
             470.54,375.05 498.62,384.59 506.84,416.00
             508.08,420.70 509.10,430.11 508.99,435.00
             508.62,451.29 496.28,482.10 491.02,499.00
             491.02,499.00 455.66,609.00 455.66,609.00
             455.66,609.00 440.00,658.00 440.00,658.00
             440.00,658.00 257.00,658.00 257.00,658.00
             257.00,658.00 263.98,633.00 263.98,633.00
             263.98,633.00 276.67,592.00 276.67,592.00
             276.67,592.00 285.00,564.00 285.00,564.00
             270.87,564.00 245.31,562.50 233.00,568.66
             222.95,573.68 215.90,585.97 211.58,596.00
             202.42,617.23 197.14,635.29 193.00,658.00
             193.00,658.00 16.00,658.00 16.00,658.00 Z
           M 252.00,480.00
           C 252.00,480.00 273.00,480.00 273.00,480.00
             273.00,480.00 292.00,481.00 292.00,481.00
             295.59,480.95 302.72,480.22 306.00,479.03
             316.57,475.22 324.70,464.45 323.90,453.00
             322.60,434.20 301.42,431.14 287.00,436.08
             265.46,443.46 255.11,457.94 252.00,480.00 Z" />

<path id="Secondary"
        fill="#FF511C" stroke="black" stroke-width="0"
        d="M 750.00,539.00
           C 750.00,539.00 569.00,539.00 569.00,539.00
             569.00,539.00 532.00,538.25 532.00,538.25
             526.89,537.39 520.91,536.16 517.51,531.89
             513.96,527.45 513.94,521.38 514.00,516.00
             514.15,503.03 519.87,485.38 524.00,473.00
             532.04,448.90 544.51,423.80 563.00,406.04
             585.64,384.29 619.02,374.05 650.00,374.00
             650.00,374.00 894.00,374.00 894.00,374.00
             918.33,374.04 933.15,380.30 945.57,402.00
             952.89,414.79 961.35,440.22 946.91,451.20
             940.87,455.80 929.45,456.99 922.00,457.00
             922.00,457.00 801.00,457.00 801.00,457.00
             793.42,456.99 784.61,456.00 778.00,452.07
             766.77,445.39 754.72,431.60 740.00,434.67
             717.98,439.27 704.51,462.74 693.00,480.00
             693.00,480.00 716.00,480.00 716.00,480.00
             716.00,480.00 733.00,481.00 733.00,481.00
             733.00,481.00 841.00,483.00 841.00,483.00
             841.00,483.00 858.00,484.00 858.00,484.00
             858.00,484.00 882.00,484.00 882.00,484.00
             882.00,484.00 899.00,485.00 899.00,485.00
             899.00,485.00 933.00,486.00 933.00,486.00
             932.84,503.93 927.49,530.72 922.28,548.00
             909.66,589.90 884.73,631.73 843.00,649.57
             830.50,654.92 819.32,655.46 806.00,656.04
             806.00,656.04 794.00,657.00 794.00,657.00
             794.00,657.00 761.00,657.00 761.00,657.00
             761.00,657.00 634.00,657.00 634.00,657.00
             634.00,657.00 619.00,658.00 619.00,658.00
             619.00,658.00 585.00,658.00 585.00,658.00
             585.00,658.00 573.00,657.04 573.00,657.04
             573.00,657.04 560.00,657.04 560.00,657.04
             551.94,656.90 530.00,654.67 523.00,651.66
             507.32,644.92 496.03,628.14 491.75,612.00
             489.16,602.21 488.95,594.96 489.00,585.00
             489.00,585.00 490.00,568.00 490.00,568.00
             490.00,568.00 505.00,568.00 505.00,568.00
             505.00,568.00 521.00,569.00 521.00,569.00
             521.00,569.00 596.00,571.00 596.00,571.00
             596.00,571.00 613.00,572.00 613.00,572.00
             613.00,572.00 628.00,572.00 628.00,572.00
             628.00,572.00 641.00,573.00 641.00,573.00
             647.14,573.07 664.05,572.16 668.70,575.01
             671.03,576.43 674.48,581.49 676.61,583.83
             683.55,591.44 692.34,597.15 703.00,594.50
             718.84,590.56 733.16,571.70 740.69,558.00
             740.69,558.00 750.00,539.00 750.00,539.00 Z
           M 1031.00,597.00
           C 1031.00,597.00 1022.65,636.00 1022.65,636.00
             1021.36,641.63 1020.80,648.57 1015.89,652.35
             1011.29,655.90 996.07,656.93 990.00,657.00
             990.00,657.00 978.00,656.17 978.00,656.17
             978.00,656.17 970.00,655.54 970.00,655.54
             955.48,652.92 944.91,644.49 940.92,630.00
             939.74,625.70 939.06,621.46 939.00,617.00
             938.65,586.50 947.46,560.79 978.00,548.45
             989.86,543.66 1008.48,542.72 1021.00,545.09
             1025.71,545.99 1033.53,548.11 1035.40,553.04
             1037.40,558.35 1032.13,568.04 1030.00,573.00
             1030.00,573.00 1012.00,567.52 1012.00,567.52
             1000.86,565.15 988.13,569.12 980.09,577.09
             963.03,594.00 959.90,629.59 984.00,633.52
             1002.84,636.59 998.19,608.03 1004.70,600.28
             1008.87,595.31 1024.62,597.00 1031.00,597.00 Z
           M 1061.00,547.00
           C 1061.00,547.00 1088.00,547.00 1088.00,547.00
             1088.00,547.00 1075.88,602.00 1075.88,602.00
             1074.26,608.83 1070.46,619.69 1073.69,625.99
             1075.12,628.79 1077.21,630.88 1080.01,632.31
             1089.29,637.06 1097.88,628.62 1102.10,621.00
             1105.88,614.15 1108.94,598.18 1110.88,590.00
             1110.88,590.00 1121.00,547.00 1121.00,547.00
             1121.00,547.00 1149.00,547.00 1149.00,547.00
             1149.00,547.00 1135.42,604.00 1135.42,604.00
             1132.30,618.06 1128.61,635.41 1117.83,645.70
             1103.12,659.75 1063.65,662.47 1050.56,645.00
             1045.11,637.73 1045.90,629.54 1046.00,621.00
             1046.09,614.05 1049.67,599.42 1051.35,592.00
             1051.35,592.00 1061.00,547.00 1061.00,547.00 Z
           M 1143.00,655.00
           C 1143.00,655.00 1150.35,623.00 1150.35,623.00
             1150.35,623.00 1162.12,572.00 1162.12,572.00
             1162.12,572.00 1166.00,555.00 1166.00,555.00
             1166.00,555.00 1168.72,547.99 1168.72,547.99
             1168.72,547.99 1176.00,547.00 1176.00,547.00
             1176.00,547.00 1195.00,547.00 1195.00,547.00
             1195.00,547.00 1190.42,569.00 1190.42,569.00
             1190.42,569.00 1178.63,620.00 1178.63,620.00
             1178.63,620.00 1171.00,655.00 1171.00,655.00
             1171.00,655.00 1143.00,655.00 1143.00,655.00 Z" />
  
</svg>
